# xmcd
#
# Track frame offsets: 
#        150
#        29620
#        45105
#        71647
#        91571
#        108761
#        125043
#        145963
#        177637
#
# Disc length: 2823 seconds
#
# Revision: 0
# Processed by: cddbd v1.5.2PL0 Copyright (c) Steve Scherf et al.
# Submitted via: ExactAudioCopy v0.99pb4
#
DISCID=760b0509
DTITLE=Willie McBlind - Bad Thing
DYEAR=2009
DGENRE=Blues
TTITLE0=13 O'Clock Blues
TTITLE1=Bad Thing
TTITLE2=Primo
TTITLE3=Blood Moon
TTITLE4=Nobody's Fault But Mine
TTITLE5=Storms
TTITLE6=Stones In My Passway
TTITLE7=It Don't Make Sense
TTITLE8=One Lucky Man
EXTD=
EXTT0=
EXTT1=
EXTT2=
EXTT3=
EXTT4=
EXTT5=
EXTT6=
EXTT7=
EXTT8=
PLAYORDER=
